<svg xmlns="http://www.w3.org/2000/svg" viewBox="0 0 888.24 235.53"><defs><style>.cls-1{fill:#999;}</style></defs><g id="レイヤー_2" data-name="レイヤー 2"><g id="レイヤー_1-2" data-name="レイヤー 1"><path class="cls-1" d="M197,194.26q0,17.12-41.61,30.2Q122.13,234.85,99,234.86q-36.91,0-64.42-13.75Q0,203.66,0,169.77q0-23.47,18.45-40.93,12.75-12.07,38.92-25.5-16.44-5.7-24.49-12.75-9.74-9.06-9.73-24.49,0-33.88,51.67-51Q111.39,3,153.67,3q15.42,0,21.47,2.35,11.75,3.69,11.74,15.43,0,10.07-4,10.07-4-3.69-11.41-9.4-5.72-3-16.11-3A263.65,263.65,0,0,0,83.21,28.52Q32.54,43,32.55,70.12q0,11.76,17.11,18.12A78.46,78.46,0,0,0,76.5,92.6q4.35,0,31.2-2,11.74-.68,19-1.17a61,61,0,0,1,9.9-.17q4.35,3,4,10.06-.68,7.05-5.37,8.73-7.71-4.7-11.74-4.7-29.19,0-65.43,14.76-48.64,20.13-48.65,53,0,27.18,34.23,39.6,24.48,9,56.7,9,12.75,0,32.55-3.35,22.47-3.34,31.2-8,22.14-11.42,22.14-14.1c0-.44-.33-.67-1-.67v-6.37Q196.94,187.22,197,194.26Z"/><path class="cls-1" d="M234.19,234.86q-17.44,0-27.18-24.83a110.88,110.88,0,0,1-7-39.92q0-29.52,6-73.82Q212.37,50,221.1,24.16q1.68-22.81,11.41-22.82,22.14,0,22.15,33.55,0,27.18-10.74,65.43-11.07,39.25-26.17,60.73a24.51,24.51,0,0,1-1.51,2.35q-1.19,1.68-3.19,4.36a12.49,12.49,0,0,0-2.68,7.38q0,23.49,10.73,38.25,7.38,10.06,13.76,10.07,12.4,0,31.54-66.44c.44-2.23,1.06-4.92,1.84-8.05s1.73-6.82,2.86-11.07q1.33-7.05,4.36-7.05t3,5q0,13.1-13.42,52.35Q249.63,234.87,234.19,234.86Zm4.7-221.1Q211,105.35,211,152.32q12.75-19.78,23.15-56,10.06-33.54,10.06-52Q244.25,19.12,238.89,13.76Z"/><path class="cls-1" d="M418.05,134.88q0,18.45-20.13,70.79-9.74,25.17-21.48,25.17-14.76,0-17.11-28.19-.68-18.12-1.34-36.23-4.69,17.79-8.22,29t-5.2,15.94q-7.72,18.8-15.77,18.79-11.74,0-11.74-19.8,0-5.37.5-12.92t1.18-17.95q.66-10.4,1.17-17.95t.5-12.92c0-2-.78-3-2.35-3q-3.69,0-8.72,23.49-3.69,18.12-6.21,28.86t-3.52,14.42q-7.73,23.16-17.11,23.15-10.41,0-10.4-32.54v-8.73q0-5.35.33-12.07.33-7,.51-12.25t.17-8.89l-3-7.72q-1.69-23.15,7.71-23.15,8.38,0,8.39,13.09,0,4.35-.5,10.4t-1.85,14.09q-1.33,8.06-1.84,14.09t-.51,10.4q0,7.73.51,14.93a99.33,99.33,0,0,0,1.84,13.59,64.81,64.81,0,0,0,9.4-23.15q2.67-15.44,4.69-25.16T301,159q8.39-31.22,18.46-31.21t10.06,22.48q-1.68,14.43-2.51,25.84t-.84,19.79q0,16.11,3.35,16.11,7,0,18.12-40.26,10.74-37.92,9.06-44c.45-2.46,2.79-3.69,7.05-3.69q4.35,0,13.08,5.37-8.38,37.92-8.39,65.43,0,25.5,8.05,25.49,9.06,0,19.8-31.2,1.68-3.69,13.09-45.63a40.52,40.52,0,0,0,1.34-4.19q.66-2.52,1.34-5.87,1-2.68,3.36-2.69C417.15,130.85,418.05,132.19,418.05,134.88Z"/><path class="cls-1" d="M568.18,191.58q0,1.68-3,9.06-11.42,14.76-33.22,24.49-21.81,9.06-41.6,9.06-31.21,0-48-22.81-14.78-20.81-14.77-52.68,0-36.9,14.43-82.2Q459.47,21.14,485.3,4.36,491.68,0,504.76,0q18.45,0,35.9,10.4,11.08,6.37,14.77,13.42,5,9.06,5,28.52,0,11.75-4,33.22-5,26.84-11.4,26.84-4.37,0-7-6.71a23.58,23.58,0,0,1-2.35-10.07q0-9.06,5.7-30.87Q547,42.61,547,32.54,547,21.47,533,14.76a52,52,0,0,0-23.49-5.7q-25.17,0-45.63,56.37-19.12,52-19.12,102,0,56.37,41.6,56.37,37.24,0,71.8-26.51l5.37-9.73C566.61,188,568.18,189.35,568.18,191.58Z"/><path class="cls-1" d="M605.08,234.86q-17.45,0-27.18-24.83a110.88,110.88,0,0,1-7-39.92q0-29.52,6-73.82Q583.27,50,592,24.16,593.67,1.34,603.4,1.34q22.14,0,22.15,33.55,0,27.18-10.74,65.43-11.07,39.25-26.17,60.73a24.51,24.51,0,0,1-1.51,2.35q-1.18,1.68-3.19,4.36a12.49,12.49,0,0,0-2.68,7.38q0,23.49,10.73,38.25,7.38,10.06,13.76,10.07,12.4,0,31.54-66.44c.44-2.23,1.06-4.92,1.84-8.05s1.73-6.82,2.86-11.07q1.34-7.05,4.36-7.05t3,5q0,13.1-13.42,52.35Q620.51,234.87,605.08,234.86Zm4.7-221.1q-27.85,91.59-27.85,138.56,12.75-19.78,23.15-56,10.06-33.54,10.06-52Q615.14,19.12,609.78,13.76Z"/><path class="cls-1" d="M693.65,135.55q0,8.38-11.74,46.64-8.73,27.51-11.07,32.88-6.72,14.76-16.11,14.76-10.4,0-15.43-12.08a60.9,60.9,0,0,1-3.69-21.14q0-6,.67-15.1t2-21.47q1.34-12.4,2-21.64t.68-15.27q2.34-2.34,6.71-2.34,8.71,0,8.72,4.69c-.45,1.8-1.07,4.31-1.85,7.55s-1.73,7.33-2.85,12.25q-6.37,30.54-6.37,52,0,22.49,10.06,22.48,4.7,0,11.41-16.77.33-.33,11.07-34.22,1.68-5.37,3.69-12.75t4.36-17.12q2-8,4.7-8.05C692.65,130.85,693.65,132.42,693.65,135.55ZM666.14,44.62q0,12.42-8.39,12.42a12.39,12.39,0,0,1-9.39-4.36,14,14,0,0,1-4-9.73c0-2.24,1.18-4.59,3.52-7.05s4.64-3.69,6.88-3.69Q666.13,32.21,666.14,44.62Z"/><path class="cls-1" d="M788.6,135.88q0,9.41-11.74,45.63Q760.75,230.17,751,230.17q-12.42,0-17.11-23.83a182.17,182.17,0,0,1-2.35-21q-1-14.25-2-36.74L723.34,171q-4.53,16.28-11.24,43.45-3.36,14.43-10.4,14.42-10.41,0-12.75-14.09l-1.34-25.16a179,179,0,0,1,0-26.84l1-12.42-3-6.37q.35-9.06,1.68-12.08,2-5.37,8.39-5.37,6.71,0,6.71,6,0,2-2.35,8.72A39.71,39.71,0,0,0,698,152v7.72c0,2.91-.12,6.37-.34,10.4s-.33,7.6-.33,10.73v7.39q0,24.15,5.37,24.15,1.66,0,4.36-8.72,4.7-19.46,7-25.5,4.7-15.1,7.72-27.85a141.54,141.54,0,0,0,3.69-24.16q1-14.09,4.7-16.77,17.12,1,17.11,10.74,0-7.38-1-2.69t-2.68,21.81Q742,156,741.12,166.58t-.84,15.27q0,36.24,9.4,36.24,8.05,0,19.46-35.57,3.35-10.4,6.21-20.63t5.2-20.64q2.34-10.4,5.37-10.4C787.7,130.85,788.6,132.53,788.6,135.88Z"/><path class="cls-1" d="M832.88,135.55q0,8.38-11.74,46.64-8.73,27.51-11.07,32.88-6.72,14.76-16.11,14.76-10.4,0-15.43-12.08a60.9,60.9,0,0,1-3.69-21.14q0-6,.67-15.1t2-21.47q1.35-12.4,2-21.64t.67-15.27q2.34-2.34,6.71-2.34,8.72,0,8.72,4.69c-.45,1.8-1.06,4.31-1.84,7.55s-1.74,7.33-2.86,12.25q-6.37,30.54-6.37,52,0,22.49,10.06,22.48,4.7,0,11.41-16.77.33-.33,11.07-34.22,1.68-5.37,3.7-12.75t4.36-17.12q2-8,4.69-8.05C831.88,130.85,832.88,132.42,832.88,135.55ZM805.37,44.62Q805.37,57,797,57a12.39,12.39,0,0,1-9.39-4.36,14,14,0,0,1-4-9.73q0-3.36,3.53-7.05c2.34-2.46,4.64-3.69,6.87-3.69Q805.38,32.21,805.37,44.62Z"/><path class="cls-1" d="M885.56,130.85c1.78,0,2.68,1.9,2.68,5.71q0,5.37-6,27.51-7.73,27.85-12.08,39.25-11.75,28.19-24.83,28.19-15.76,0-22.81-17.45-4.69-13.08-4.7-30.87t6.38-42.94q8.39-32.55,20.46-32.55,4.7,0,10.4,7,5.72,7.38,5.71,12.08,0,8-5.71,8-4.37,0-12.07-5.71Q829.18,146,829.19,195.61a49.71,49.71,0,0,0,2.68,15.77q3.36,10.4,10.4,10.4,19.13,0,35.9-72.14,2.69-12.4,3-13.76C882.09,132.53,883.54,130.85,885.56,130.85Z"/></g></g></svg>